<svg width="48" height="48" viewBox="0 0 48 48" fill="none" xmlns="http://www.w3.org/2000/svg">
<g clip-path="url(#clip0_5_88)">
<path d="M35.346 11.212C31.5637 9.4329 27.783 7.65023 24.004 5.864L0.276001 17.048L4.336 19.008L4 19.062V40H6V20.748L7.44 20.5L8 20.77V31.346C8 33.174 18.412 38.412 20.498 39.444C21.5825 39.9763 22.7761 40.2487 23.9841 40.2397C25.1922 40.2307 26.3816 39.9405 27.458 39.392C40 32.972 40 31.79 40 31.346V20.77L47.708 17.056C47.708 17.056 40.108 13.454 35.346 11.212ZM38 31.008C34.3279 33.4522 30.5027 35.658 26.548 37.612C25.7496 38.0195 24.8671 38.2353 23.9707 38.2422C23.0743 38.2491 22.1887 38.0471 21.384 37.652C17.415 35.7637 13.6075 33.5529 10 31.042V21.732L24 28.478L38 21.732V31.008ZM24 26.262L10.832 19.916L23.77 17.686L23.43 15.712L7.73 18.42L4.924 17.068L23.998 8.078C25.648 8.864 41.044 16.106 43.082 17.066L24 26.262Z" fill="black"/>
</g>
<defs>
<clipPath id="clip0_5_88">
<rect width="48" height="48" fill="white"/>
</clipPath>
</defs>
</svg>
