<svg width="42" height="42" viewBox="0 0 42 42" fill="none" xmlns="http://www.w3.org/2000/svg">
<path d="M26.25 28C25.7537 26.0031 23.5917 24.5 21 24.5C18.4083 24.5 16.2464 26.0031 15.75 28M19.25 5.25H22.75M21 17.5H21.0175M14 8.75H10.85C8.88982 8.75 7.90972 8.75 7.16104 9.13148C6.50246 9.46703 5.96703 10.0025 5.63148 10.661C5.25 11.4097 5.25 12.3898 5.25 14.35V29.4C5.25 31.3602 5.25 32.3404 5.63148 33.089C5.96703 33.7475 6.50246 34.283 7.16104 34.6185C7.90972 35 8.88982 35 10.85 35H31.15C33.1102 35 34.0904 35 34.839 34.6185C35.4975 34.283 36.033 33.7475 36.3685 33.089C36.75 32.3404 36.75 31.3602 36.75 29.4V14.35C36.75 12.3898 36.75 11.4097 36.3685 10.661C36.033 10.0025 35.4975 9.46703 34.839 9.13148C34.0904 8.75 33.1102 8.75 31.15 8.75H28M22.75 17.5C22.75 18.4665 21.9665 19.25 21 19.25C20.0335 19.25 19.25 18.4665 19.25 17.5C19.25 16.5335 20.0335 15.75 21 15.75C21.9665 15.75 22.75 16.5335 22.75 17.5Z" stroke="black" stroke-width="2" stroke-linecap="round" stroke-linejoin="round"/>
</svg>
