<svg width="32" height="32" viewBox="0 0 32 32" fill="none" xmlns="http://www.w3.org/2000/svg">
<path d="M25.4 21.9C26.1 20.8 26.6 19.6 26.85 18.35C26.85 18.3 26.9 18.3 26.9 18.25C26.9 18.25 26.9 18.2 26.95 18.2C26.95 18.15 27 18.15 27 18.15L27.05 18.1C27.05 18.1 27.1 18.1 27.1 18.05C27.15 18.05 27.15 18 27.2 18L31.65 17.35V14.55L27.2 13.9H27.15C27.1 13.9 27.1 13.9 27.05 13.85C27.05 13.85 27 13.85 27 13.8C26.95 13.8 26.95 13.75 26.9 13.75L26.85 13.7C26.85 13.65 26.8 13.65 26.8 13.6V13.55C26.5 12.3 26.05 11.15 25.35 10.05C25.35 10 25.3 10 25.3 9.95C25.3 9.9 25.3 9.9 25.25 9.85C25.25 9.8 25.25 9.8 25.25 9.75C25.25 9.7 25.25 9.7 25.25 9.65C25.25 9.6 25.25 9.6 25.3 9.6C25.3 9.55 25.35 9.55 25.35 9.5L28.05 5.85L26.05 3.85L22.5 6.55C22.45 6.6 22.4 6.6 22.35 6.65C22.3 6.65 22.25 6.65 22.25 6.65H22.2H22.15C22.1 6.65 22.05 6.65 22 6.6C22 6.6 22 6.6 21.95 6.6C20.9 5.9 19.7 5.45 18.5 5.15H18.15L17.45 0.200001H14.65L13.95 5.15H13.5C12.25 5.45 11.1 5.9 10.05 6.6C10.05 6.6 10.05 6.6 10 6.6C9.95 6.6 9.9 6.65 9.85 6.65H9.8H9.75C9.7 6.65 9.65 6.65 9.65 6.65C9.6 6.65 9.55 6.6 9.5 6.55L5.85 3.85L3.85 5.85L6.55 9.5C6.55 9.55 6.6 9.55 6.6 9.6L6.65 9.65C6.65 9.7 6.65 9.7 6.65 9.75C6.65 9.8 6.65 9.8 6.65 9.85C6.65 9.9 6.65 9.9 6.6 9.95C6.6 10 6.6 10 6.55 10.05C5.85 11.15 5.35 12.3 5.1 13.55V13.6C5.1 13.65 5.05 13.7 5.05 13.7L5 13.75C4.95 13.8 4.95 13.8 4.9 13.85C4.9 13.85 4.85 13.85 4.85 13.9C4.8 13.9 4.8 13.95 4.75 13.95C4.75 13.95 4.75 13.95 4.7 13.95L0.25 14.6V17.4L4.7 18.05C4.75 18.05 4.8 18.05 4.8 18.1C4.8 18.1 4.85 18.1 4.85 18.15C4.9 18.15 4.9 18.2 4.9 18.2L4.95 18.25C4.95 18.25 4.95 18.3 5 18.3C5 18.35 5.05 18.35 5.05 18.4C5.3 19.65 5.8 20.85 6.5 21.95L6.6 22.05V22.2V22.35L3.8 26.1L5.8 28.1L9.4 25.4C9.45 25.4 9.45 25.35 9.5 25.35C9.5 25.35 9.55 25.35 9.55 25.3C9.6 25.3 9.6 25.3 9.65 25.3C9.7 25.3 9.7 25.3 9.75 25.3C9.8 25.3 9.8 25.3 9.8 25.35C9.85 25.35 9.9 25.35 9.9 25.4C11 26.1 12.2 26.6 13.45 26.9C13.5 26.9 13.5 26.9 13.55 26.95C13.6 26.95 13.6 27 13.65 27L13.7 27.05C13.75 27.1 13.75 27.1 13.8 27.15C13.8 27.15 13.8 27.2 13.85 27.2C13.85 27.25 13.9 27.3 13.9 27.3L14.55 31.75H17.35L18 27.3C18 27.25 18.05 27.2 18.05 27.15V27.1C18.1 27.05 18.1 27 18.15 27C18.15 27 18.15 27 18.15 26.95C18.2 26.95 18.2 26.9 18.25 26.9L18.3 26.85C19.55 26.55 20.75 26.05 21.85 25.35C21.9 25.35 21.9 25.3 21.95 25.3H22C22.05 25.3 22.05 25.3 22.1 25.3C22.15 25.3 22.15 25.3 22.2 25.3C22.25 25.3 22.25 25.3 22.3 25.35C22.35 25.35 22.35 25.4 22.4 25.4L26 28.1L28 26.1L25.45 22.5V22.45C25.45 22.4 25.4 22.4 25.4 22.35C25.4 22.3 25.4 22.3 25.4 22.25V22.2V22.05V21.9ZM23 16.7C22.6 19.85 20.05 22.4 16.9 22.8C12.3 23.4 8.4 19.5 9 14.85C9.4 11.7 11.95 9.15 15.1 8.75C19.7 8.2 23.6 12.1 23 16.7Z" fill="black"/>
</svg>
