<svg width="22" height="21" viewBox="0 0 22 21" fill="none" xmlns="http://www.w3.org/2000/svg">
<path d="M17.0535 11.136L14.2681 7.95083C13.9857 7.60434 13.8446 7.43109 13.7706 7.23678C13.7051 7.06485 13.678 6.88175 13.691 6.69925C13.7058 6.49298 13.7912 6.2892 13.962 5.88164L14.6135 4.32699C14.8662 3.72383 14.9926 3.42227 15.2106 3.22459C15.4026 3.05041 15.6434 2.93291 15.9038 2.88624C16.1993 2.83328 16.5294 2.91205 17.1897 3.06961L18.993 3.50002C18.993 12.25 12.5766 18.375 3.40972 18.375L2.95906 16.6534C2.79401 16.0232 2.71148 15.708 2.76697 15.426C2.81586 15.1774 2.93895 14.9476 3.12142 14.7642C3.32851 14.5562 3.64445 14.4355 4.27632 14.1943L5.72972 13.6393C6.21684 13.4533 6.46039 13.3603 6.70323 13.3532C6.91785 13.3469 7.13103 13.3886 7.32571 13.4752C7.54596 13.573 7.73145 13.7501 8.10242 14.1042L10.9316 16.7623" stroke="#EEEEEE" stroke-width="2" stroke-linecap="round" stroke-linejoin="round"/>
</svg>
